<svg xmlns="http://www.w3.org/2000/svg" viewBox="0 0 500 500"><g id="freepik--background-complete--inject-61"><rect y="382.4" width="500" height="0.25" style="fill:#ebebeb"></rect><rect x="416.78" y="398.49" width="33.12" height="0.25" style="fill:#ebebeb"></rect><rect x="260.33" y="395.36" width="12.89" height="0.25" style="fill:#ebebeb"></rect><rect x="322.53" y="396.42" width="27.14" height="0.25" style="fill:#ebebeb"></rect><rect x="359.67" y="389.21" width="56.11" height="0.25" style="fill:#ebebeb"></rect><rect x="52.46" y="400.78" width="26.53" height="0.25" style="fill:#ebebeb"></rect><rect x="87.89" y="400.78" width="23" height="0.25" style="fill:#ebebeb"></rect><rect x="131" y="395.24" width="60.81" height="0.25" style="fill:#ebebeb"></rect><path d="M237,337.8H43.91a5.71,5.71,0,0,1-5.7-5.71V60.66A5.71,5.71,0,0,1,43.91,55H237a5.71,5.71,0,0,1,5.71,5.71V332.09A5.71,5.71,0,0,1,237,337.8ZM43.91,55.2a5.46,5.46,0,0,0-5.45,5.46V332.09a5.46,5.46,0,0,0,5.45,5.46H237a5.47,5.47,0,0,0,5.46-5.46V60.66A5.47,5.47,0,0,0,237,55.2Z" style="fill:#ebebeb"></path><path d="M453.31,337.8H260.21a5.72,5.72,0,0,1-5.71-5.71V60.66A5.72,5.72,0,0,1,260.21,55h193.1A5.71,5.71,0,0,1,459,60.66V332.09A5.71,5.71,0,0,1,453.31,337.8ZM260.21,55.2a5.47,5.47,0,0,0-5.46,5.46V332.09a5.47,5.47,0,0,0,5.46,5.46h193.1a5.47,5.47,0,0,0,5.46-5.46V60.66a5.47,5.47,0,0,0-5.46-5.46Z" style="fill:#ebebeb"></path><path d="M302.88,271h0q.93,0,1.89.06A27,27,0,0,1,328.91,305a134.76,134.76,0,0,0-4.23,35.11v34.48a4.52,4.52,0,0,1-4.52,4.53H210.71V271Z" style="fill:#f0f0f0"></path><path d="M183.76,298a27,27,0,1,1,53,7,135.18,135.18,0,0,0-4.22,35.11v34.48a4.53,4.53,0,0,1-4.53,4.53H193.43a4.52,4.52,0,0,1-4.52-4.53v-36.5a122.85,122.85,0,0,0-4.18-32.9A27.22,27.22,0,0,1,183.76,298Z" style="fill:#f5f5f5"></path><rect x="247.86" y="313.49" width="98.24" height="65.63" transform="translate(593.95 692.61) rotate(180)" style="fill:#f0f0f0"></rect><path d="M354.93,230.44h90.68c11.27,0,19.24,9.14,17.81,20.4l-10.29,77.49H321.65l10.29-77.49C333.37,239.58,343.66,230.44,354.93,230.44Z" style="fill:#e0e0e0"></path><path d="M320.13,230.44h92.65c10.73,0,18.32,8.7,17,19.42l-10.42,78.47H287.83l10.42-78.47C299.61,239.14,309.41,230.44,320.13,230.44Z" style="fill:#f5f5f5"></path><path d="M245,307.5h90.55a5.92,5.92,0,0,1,5.92,5.92V328.3a5.92,5.92,0,0,1-5.92,5.92H245a1.77,1.77,0,0,1-1.77-1.77V309.27A1.77,1.77,0,0,1,245,307.5Z" transform="translate(584.63 641.72) rotate(180)" style="fill:#e0e0e0"></path><path d="M437,271h0q.94,0,1.89.06A27,27,0,0,1,463,305a135.18,135.18,0,0,0-4.22,35.11v34.48a4.53,4.53,0,0,1-4.53,4.53H344.81V271Z" style="fill:#f0f0f0"></path><path d="M317.85,298a27,27,0,1,1,53,7,134.76,134.76,0,0,0-4.23,35.11v34.48a4.52,4.52,0,0,1-4.52,4.53H327.53a4.53,4.53,0,0,1-4.53-4.53v-36.5a123.25,123.25,0,0,0-4.17-32.9A26.82,26.82,0,0,1,317.85,298Z" style="fill:#f5f5f5"></path><path d="M212.64,382.4H435.05a3.28,3.28,0,0,0,3.28-3.28h-229A3.28,3.28,0,0,0,212.64,382.4Z" style="fill:#e0e0e0"></path><rect x="87.68" y="80.11" width="313.45" height="128.94" transform="translate(488.82 289.16) rotate(180)" style="fill:#e6e6e6"></rect><rect x="83.73" y="80.11" width="315.56" height="128.94" transform="translate(483.01 289.16) rotate(180)" style="fill:#f5f5f5"></rect><rect x="87.68" y="209.05" width="313.45" height="4.88" transform="translate(488.82 422.99) rotate(180)" style="fill:#e6e6e6"></rect><rect x="80.17" y="209.05" width="306.9" height="4.88" transform="translate(467.25 422.99) rotate(180)" style="fill:#f5f5f5"></rect><rect x="184.43" y="-7.66" width="114.16" height="304.48" transform="translate(386.09 -96.92) rotate(90)" style="fill:#fafafa"></rect><rect x="32.58" y="144.19" width="114.16" height="0.79" transform="translate(234.24 54.92) rotate(90)" style="fill:#e6e6e6"></rect><polygon points="374.08 201.66 353.58 87.5 326.71 87.5 347.21 201.66 374.08 201.66" style="fill:#fff"></polygon><polygon points="264.86 201.66 244.36 87.5 232.22 87.5 252.72 201.66 264.86 201.66" style="fill:#fff"></polygon><rect x="328.54" y="135.36" width="121.2" height="1.27" rx="0.61" transform="translate(525.14 -253.15) rotate(90)" style="fill:#ebebeb"></rect><rect x="80.82" y="75.39" width="322.47" height="85.63" transform="translate(484.1 236.42) rotate(180)" style="fill:#e6e6e6;opacity:0.5"></rect><rect x="80.82" y="75.39" width="322.47" height="2.27" transform="translate(484.1 153.06) rotate(180)" style="fill:#e0e0e0"></rect><rect x="80.17" y="74.4" width="323.76" height="1.99" rx="0.87" transform="translate(484.1 150.79) rotate(180)" style="fill:#ebebeb"></rect><path d="M80.65,161.5H403.46a.48.48,0,0,0,.47-.48h0a.47.47,0,0,0-.47-.47H80.65a.48.48,0,0,0-.48.47h0A.49.49,0,0,0,80.65,161.5Z" style="fill:#fff"></path><path d="M102,282.21C91.06,266.74,65,261,56,251.21c-11.81-12.81-11.74-32-1.69-38.94,8.74-6,37.68,34.7,40.94,39.25,11.21,15.64,14.47,27.26,16.57,38.51-.24-9.57-.47-18.35-.66-25.12-.61-22.1-1.38-29.21-1.73-31.39-1.2-1.07-2.63-2.32-3.46-3-7-5.65-22.49-10-30.25-18.21-11.34-12-9.11-30.88-3-34.33,8.72-4.92,26.58,6.85,32.21,21,4.29,10.78,5.84,22.33,6.66,36.44.13,2.17.93,10.22,1.37,21.43,2.37-12.07,7.08-20.15,15.82-27.69,10.75-9.27,20-20.55,28.89-19.1s4.09,16.4-2.92,26.88c-6.24,9.34-37,18.65-41.56,26.16.54,15.2,1,34.47,1.35,52.4,2.43-9.26.76-10,10.71-24.22,5.91-8.44,30.15-18.83,33-13s-1.51,16.74-10.66,24.41c-7.38,6.19-23.76,6.18-27.55,10-.88.9-3.8,4.33-5.47,6.3.39,21.9.57,41.23.37,47.82l-1.59.07c.08-1.7-.11-12.84-.42-27.58-4-7.85-30.76-12.43-39-20.58-8.65-8.54-14.87-18.5-11.16-25.17,3.1-5.56,27.49,2,37.4,11.22,6.59,6.13,10.62,12.69,12.5,21.49-.23-10.05-.48-20.83-.73-31C109.9,292.7,105.32,286.85,102,282.21Z" style="fill:#e6e6e6"></path><path d="M137.93,382.4H86.54a5.76,5.76,0,0,1-5.79-4L77.1,363h70.26l-3.65,15.38A5.75,5.75,0,0,1,137.93,382.4Z" style="fill:#f0f0f0"></path><path d="M148.83,368.93H75.63a3.29,3.29,0,0,1-3.42-2.61L70.71,355c-.23-1.75,1.37-3.28,3.43-3.28h76.19c2,0,3.65,1.53,3.42,3.28l-1.5,11.37A3.29,3.29,0,0,1,148.83,368.93Z" style="fill:#f0f0f0"></path></g><g id="freepik--Shadow--inject-61"><ellipse id="freepik--path--inject-61" cx="250" cy="416.24" rx="193.89" ry="11.32" style="fill:#f5f5f5"></ellipse></g><g id="freepik--character-1--inject-61"><path d="M215.74,135.92c.31-.34,3.49-3.59,2.31-5.56-1,2.07-2.92,5.21-8.8,5.73a16.32,16.32,0,0,0,1-5.57,15.36,15.36,0,0,1-4.22,5.6A45.34,45.34,0,0,1,195.31,134c-14.82,1.36-15.18-10.31-15.3-12.91a22,22,0,0,0-.51,5.3c-3.2-5.08-2.69-12.79,1.53-14.23.77-16.4,12.62-17.86,15.6-18.51,5.38-1.18,14.77-5.69,19.42,4,6.53,3.51,9,11.76,6.21,24.34C227.86,131,216.33,135.69,215.74,135.92Z" style="fill:#263238"></path><path d="M194.39,416.23c7.74,0,8.76-.12,13.11-.27,3.72-.13,4.61.33,7.61.27,2.5-.06,2.4-2.45,1.63-5.2-.38-1.38-1-4.31-1.51-6.54l-11.76,1.23a11.67,11.67,0,0,1-9.13,5.92C190.17,412.2,191.31,416.23,194.39,416.23Z" style="fill:#263238"></path><path d="M188.05,388.22c4.58-6.07,5.74-8.4,8.21-11.9,2.11-3,2.52-2.25,4.77-5.21,1.48-2,.11-4.74-2-5.35a33,33,0,0,1-5.79-1.73l-7.72,5.69c1.41,3.65,1.57,12-1.6,16.85C181.63,390.05,186.2,390.65,188.05,388.22Z" style="fill:#263238"></path><path d="M158.91,202.67s-22.24,63.58-25.12,86.85c-2.81,22.76,52.31,81.94,52.31,81.94,1.33,1,6.85-5.86,7.16-7.66,0,0-21.88-48.2-37.12-73.55,33-48.89,38.73-81.88,38.73-81.88Z" style="fill:#407BFF"></path><path d="M169.69,204.38s12.43,64,17.17,94.84c5,32.36,17.86,85.34,16.61,106.5,1.81,1.06,8.47-.73,12-1.85,0,0,9.15-69.41-6.63-101.45,10.21-74.88-8.71-93.21-8.71-93.21Z" style="fill:#407BFF"></path><path d="M202.58,396.47c0,1.9-.13,5.21-.41,7.74-.1.91.25,1.76.76,1.91,4.3,1.22,10.53-.56,12.51-1.19.38-.12.66-.65.72-1.33l.64-7.24c.09-1-.34-1.89-.91-1.87l-12.42.43C203,394.94,202.6,395.61,202.58,396.47Z" style="fill:#263238"></path><path d="M179.31,364.66c1.2,1.63,3.32,4.53,4.85,6.72.51.72,1.26,1.1,1.72.89,3.45-1.6,7.56-6,8.89-7.42.26-.29.2-.88-.15-1.46l-3.78-6.25c-.51-.85-1.43-1.35-1.9-1l-9.83,6.8C178.71,363.2,178.79,364,179.31,364.66Z" style="fill:#263238"></path><path d="M173.05,155.12c-.35-.51-.55-.83-.8-1.23l-.69-1.14c-.44-.75-.85-1.51-1.25-2.27q-1.2-2.28-2.24-4.61a73.18,73.18,0,0,1-3.49-9.62,68.77,68.77,0,0,1-2.12-10.07c-.25-1.71-.39-3.43-.49-5.16,0-.87-.08-1.73-.07-2.6v-1.3c0-.56,0-1.17.09-1.68a31.3,31.3,0,0,1,1.09-5.56c.47-1.7,1-3.3,1.58-4.87,1.15-3.14,2.45-6.13,3.81-9.07a165.2,165.2,0,0,1,9.22-17,3.15,3.15,0,0,1,5.64,2.71l0,.06c-2.09,5.86-4.15,11.8-6.05,17.65-.94,2.94-1.83,5.87-2.56,8.75-.37,1.43-.71,2.86-1,4.24a24.63,24.63,0,0,0-.43,3.76c0,.27,0,.45,0,.68l.09,1.07c.05.7.15,1.41.22,2.12.21,1.41.41,2.82.7,4.22a69.56,69.56,0,0,0,2.21,8.33,81,81,0,0,0,3.17,8.08c.59,1.33,1.22,2.63,1.88,3.9l1,1.87.51.91.46.77.17.28a6.33,6.33,0,0,1-10.7,6.74Z" style="fill:#b55b52"></path><path d="M188.89,76.17A6,6,0,0,1,187,80l-4.95,4.27a2.19,2.19,0,0,1-2.5.28l-2.71-1.4A22.4,22.4,0,0,1,179.35,72l1.22-4.71a1.12,1.12,0,0,1,1.58-.88l6.47,3.37a1.86,1.86,0,0,1,.85,1.87Z" style="fill:#b55b52"></path><path d="M176.51,162.88c16.38-5.55,8.57-17.51,4.14-28.78-4.3-3.26-17,10.15-17,10.15S160.42,161.64,176.51,162.88Z" style="fill:#263238"></path><path d="M164.26,153.73a187.52,187.52,0,0,0-2.72,18.92c-1,8.25-1.69,16.4-2.63,30l41.26,6.54c1-11.76,4.46-24.79,16-49.77a9.75,9.75,0,0,0-6.25-13.81c-1.61-.42-3.32-.83-5.09-1.2a133.41,133.41,0,0,0-18.73-3c-2.07-.13-4.22-.21-6.28-.25A15.73,15.73,0,0,0,164.26,153.73Z" style="fill:#263238"></path><path d="M206.87,123.13c-2.59,5.77-6.34,16.49-3.06,21.14,0,0-5.57-1.77-18.88,3.81-2.72-5.59.15-6.78.15-6.78,7.09-.52,8.08-5.48,8-10.29Z" style="fill:#b55b52"></path><path d="M187.71,147c3.91,1.2,4.2,7.43,4.2,7.43s10.67-5.27,14.46-9.57a40.6,40.6,0,0,1-3.15-2.78S190.41,145,187.71,147Z" style="fill:#fff"></path><path d="M184,145.73s-3.6.39-5.61,5c.48-8.94,4.82-9.78,4.82-9.78a5.13,5.13,0,0,1,3.69,0A4.33,4.33,0,0,0,184,145.73Z" style="fill:#fff"></path><path d="M201.24,126.34,193.08,131a18.9,18.9,0,0,1-.19,3.38c2.65,0,6.84-2.19,7.74-4.8A9.09,9.09,0,0,0,201.24,126.34Z" style="opacity:0.2"></path><path d="M213.93,111.84c-3.37,9.45-4.6,13.5-10.89,17.29-9.47,5.7-20.36.17-19.88-9.93.42-9.08,5.86-23,16.4-24.63C210,93,217.3,102.4,213.93,111.84Z" style="fill:#b55b52"></path><path d="M211.31,98.59c-5.1,3.06-4.93,19.52,3.55,18.32C222.72,107.39,216.78,95.68,211.31,98.59Z" style="fill:#263238"></path><path d="M216.06,97.56c-5.89,9.25-28.15,1.24-33.4-3.17,3.78,1.13,10.15.14,14.75-1S214.76,86.25,216.06,97.56Z" style="fill:#263238"></path><path d="M186.44,92.58a35.54,35.54,0,0,0,19.26-.51l6.73-.55C207.52,88.28,194.2,92.45,186.44,92.58Z" style="fill:#263238"></path><path d="M201.24,111.5c-.25.8-.87,1.35-1.39,1.23s-.75-.87-.5-1.68.88-1.36,1.4-1.23S201.49,110.69,201.24,111.5Z" style="fill:#263238"></path><path d="M191.17,108.8c-.25.81-.88,1.36-1.4,1.24s-.74-.88-.49-1.68.87-1.36,1.39-1.24S191.41,108,191.17,108.8Z" style="fill:#263238"></path><path d="M190.89,107.22l-1.74-1S189.66,108,190.89,107.22Z" style="fill:#263238"></path><path d="M193.72,111.3a25.22,25.22,0,0,1-4.43,4.47C190,117,192,117,192,117Z" style="fill:#a02724"></path><path d="M195.63,121a7.76,7.76,0,0,1-1.37-.19.23.23,0,0,1-.16-.3.26.26,0,0,1,.3-.18,7,7,0,0,0,5.92-1.28.25.25,0,0,1,.35,0,.24.24,0,0,1,0,.34A7.41,7.41,0,0,1,195.63,121Z" style="fill:#263238"></path><path d="M214.64,121a8,8,0,0,1-5.4,2.94c-2.72.23-3.4-2.52-2.09-5,1.19-2.22,4-5,6.48-4.1S216.34,118.87,214.64,121Z" style="fill:#b55b52"></path><path d="M205.1,105.59a.43.43,0,0,1-.31-.2,3.57,3.57,0,0,0-3-1.7.47.47,0,0,1-.48-.47.53.53,0,0,1,.51-.5,4.47,4.47,0,0,1,3.77,2.11.51.51,0,0,1-.17.68A.52.52,0,0,1,205.1,105.59Z" style="fill:#263238"></path><path d="M189.14,103.5a.43.43,0,0,1-.32-.14.49.49,0,0,1,0-.69,5.17,5.17,0,0,1,4.32-1.48.45.45,0,0,1,.34.57.53.53,0,0,1-.6.38,4.12,4.12,0,0,0-3.41,1.21A.55.55,0,0,1,189.14,103.5Z" style="fill:#263238"></path><path d="M201,109.92l-1.74-1S199.74,110.65,201,109.92Z" style="fill:#263238"></path><path d="M189.11,207.09l2.06-2.33a3.64,3.64,0,0,1,3.1-1.21l5.45.58a6.72,6.72,0,0,1,5.18,3.4l.67,1.18c-3.16,4.11-9.6,6.22-9.6,6.22l-1.77.81a3,3,0,0,1-4-1.42l-1.65-3.48A3.5,3.5,0,0,1,189.11,207.09Z" style="fill:#b55b52"></path><path d="M220,158.55c.34.8.6,1.45.88,2.16s.51,1.4.76,2.1c.49,1.4,1,2.8,1.39,4.21.85,2.82,1.59,5.69,2.19,8.6a81.21,81.21,0,0,1,1.36,8.9,64.43,64.43,0,0,1,.22,9.24v.32a4.25,4.25,0,0,1-.14.88,12.86,12.86,0,0,1-2.7,5,20.43,20.43,0,0,1-3.32,3.08,34.46,34.46,0,0,1-6.75,3.83,55,55,0,0,1-6.8,2.45,56.31,56.31,0,0,1-7,1.58,3.16,3.16,0,0,1-2-5.91l.14-.08c1.85-1,3.83-2,5.68-3.08s3.68-2.16,5.37-3.32a31,31,0,0,0,4.48-3.59,9.28,9.28,0,0,0,1.4-1.72c.3-.51.38-.87.32-.91l-.15,1.2a69.83,69.83,0,0,0-.78-7.51c-.44-2.54-1-5.08-1.6-7.63s-1.37-5.09-2.16-7.62c-.39-1.26-.8-2.52-1.24-3.77l-.66-1.85-.63-1.75-.09-.24A6.33,6.33,0,0,1,220,158.55Z" style="fill:#b55b52"></path><path d="M209.18,145.44c6.78,1.18,9.49,5,14.79,18.75-2.62,5.05-14.52,9.7-14.52,9.7S203.38,154.43,209.18,145.44Z" style="fill:#263238"></path></g><g id="freepik--character-2--inject-61"><polygon points="358.89 398.5 368.44 395.88 363.22 373.48 353.67 376.1 358.89 398.5" style="fill:#ff8b7b"></polygon><path d="M367.13,391.9l-10.48,2.69a.82.82,0,0,0-.62.86l.72,8.92a1.52,1.52,0,0,0,1.9,1.34c3.76-1,9.16-2.66,13.91-3.88,5.56-1.43,5.06-1.07,11.57-2.74,3.94-1,3.81-5.23,2.05-5.16-8,.3-8.8.41-16.51-1.88A4.79,4.79,0,0,0,367.13,391.9Z" style="fill:#263238"></path><polygon points="363.22 373.48 365.91 385.03 356.36 387.65 353.67 376.1 363.22 373.48" style="opacity:0.2"></polygon><path d="M369,392.35a.21.21,0,0,1-.19-.15.23.23,0,0,1,.07-.26c.39-.34,3.85-3.32,5.15-3a.7.7,0,0,1,.5.52h0a1.4,1.4,0,0,1-.19,1.23c-.87,1.21-3.7,1.54-5.31,1.62Zm4.8-2.93c-.77-.06-2.7,1.28-4.08,2.41,2.2-.19,3.76-.69,4.24-1.37a.92.92,0,0,0,.13-.81.28.28,0,0,0-.2-.21Z" style="fill:#407BFF"></path><path d="M369,392.35H369a.26.26,0,0,1-.13-.19c0-.11-.29-2.8.72-4.13a1.8,1.8,0,0,1,1.18-.71h0c.64-.1.89.17,1,.42.4,1-1.46,3.75-2.52,4.57A.18.18,0,0,1,369,392.35Zm2-4.59h-.24a1.34,1.34,0,0,0-.87.54,5.86,5.86,0,0,0-.65,3.32c1-1,2.26-3.08,2-3.71C371.27,387.88,371.24,387.78,371,387.76Zm-.1,1.53Z" style="fill:#407BFF"></path><path d="M326.29,286.11c-21.58-47.35-37.05-66.7-37.4-92.22l34.38-6.29s26.74,64.91,29.56,94.61c2.93,30.88,14.53,95.64,14.53,95.64l-15.68,3S327.06,321.08,326.29,286.11Z" style="fill:#263238"></path><path d="M292.14,213.34c3.95,12.71,11.28,26.15,20.79,45C311.25,236.23,304.12,210.45,292.14,213.34Z" style="opacity:0.2"></path><polygon points="368.75 373.26 369.13 380.21 352.17 384.78 349.92 378.68 368.75 373.26" style="fill:#263238"></polygon><polygon points="276.04 384.95 275.26 407.95 286.26 407.79 287.04 384.79 276.04 384.95" style="fill:#ff8b7b"></polygon><path d="M286,404.79l-10.81.17a.77.77,0,0,0-.76.69l-.94,8.85a1.61,1.61,0,0,0,1.62,1.74c3.9-.13,5.12-.45,10-.52,5.73-.09,3.09.14,9.81,0,4.06-.07,4.71-4.18,3-4.55-5.51-1.15-7-3.34-9.43-5.68A3.54,3.54,0,0,0,286,404.79Z" style="fill:#263238"></path><polygon points="276.04 384.95 275.63 396.81 286.64 396.65 287.04 384.8 276.04 384.95" style="opacity:0.2"></polygon><path d="M284,405.54a.22.22,0,0,1-.21-.12.23.23,0,0,1,0-.27c.34-.38,3.33-3.69,4.7-3.49a.74.74,0,0,1,.59.44h0a1.31,1.31,0,0,1,0,1.22c-.67,1.29-3.47,1.95-5.07,2.22Zm4.36-3.42c-.79,0-2.51,1.57-3.71,2.83,2.17-.45,3.66-1.12,4-1.84a.86.86,0,0,0,0-.81.28.28,0,0,0-.23-.18Z" style="fill:#407BFF"></path><path d="M284,405.54H284a.24.24,0,0,1-.17-.17c0-.11-.74-2.7.07-4.11a1.69,1.69,0,0,1,1.07-.85h0c.63-.17.92.07,1.05.3.57,1-.87,3.83-1.8,4.76A.2.2,0,0,1,284,405.54Zm1.27-4.71a.85.85,0,0,0-.24,0h0a1.2,1.2,0,0,0-.78.62,5.5,5.5,0,0,0-.13,3.32c.88-1.12,1.78-3.27,1.43-3.86C285.57,400.91,285.52,400.82,285.31,400.83Zm-.3-.19h0Z" style="fill:#407BFF"></path><path d="M276.18,293.9c-3.12-35.46-11.79-70.21-8.9-96.35l36-6s5.18,73.29,1.23,103.5c-4.1,31.41-14.77,94.51-14.77,94.51l-16,.22S271.94,328.6,276.18,293.9Z" style="fill:#263238"></path><polygon points="292.02 385.97 290.98 392.81 273.05 393.13 272.04 386.66 292.02 385.97" style="fill:#263238"></polygon><path d="M299.16,98c3,.92,6.27,1.89,9.42,2.79s6.35,1.75,9.5,2.55,6.31,1.48,9.38,2c1.53.27,3.05.46,4.51.63a28.91,28.91,0,0,0,4,.18l-3.14,1.14a1.61,1.61,0,0,0-.55.76c0,.14.08,0,.16-.29a10.17,10.17,0,0,0,0-3.22,48.92,48.92,0,0,0-2.12-8.81c-1-3.06-2.15-6.15-3.38-9.23s-2.59-6.21-3.89-9.22l-.05-.11a3.75,3.75,0,0,1,6.38-3.81,104.69,104.69,0,0,1,6.13,8.72,99.25,99.25,0,0,1,5.28,9.39c.8,1.64,1.54,3.34,2.24,5.11a39,39,0,0,1,1.78,5.65,23.1,23.1,0,0,1,.65,7,13.72,13.72,0,0,1-1.18,4.64,11.64,11.64,0,0,1-3.83,4.63,6.38,6.38,0,0,1-2.88,1.12l-.27,0a51.59,51.59,0,0,1-11.83-.1c-3.67-.39-7.22-1-10.71-1.71s-6.91-1.55-10.31-2.47-6.69-1.93-10.14-3.15A7.52,7.52,0,0,1,299,98Z" style="fill:#ff8b7b"></path><path d="M324.79,79.68l-7.93-6.85,10.37-6.1s7.24,7,3.48,11.4Z" style="fill:#ff8b7b"></path><path d="M315.26,65.24l4.58-2.88a2.88,2.88,0,0,1,3.63.44l3.76,3.93-10.37,6.1-2.43-3.5A2.9,2.9,0,0,1,315.26,65.24Z" style="fill:#ff8b7b"></path><path d="M292.69,94.85c9.7-1.46,25.51,7.57,25.51,7.57l-3.46,21.51s-7.35-.56-17-5.43C294.81,117,281.22,96.59,292.69,94.85Z" style="fill:#407BFF"></path><path d="M293.81,94.74c-10.7,1-27.08,4.8-37.87,9.16a14.19,14.19,0,0,0-8.89,14.23c1.1,14.34,9.24,37.23,19.6,80.11,5.38,1.11,20.68-.62,32.76-2.79,1.31-.23,4.22-3.68,4.22-3.68s3.19,2.22,4.85,1.84c8-1.82,14.23-3.9,15.55-5.64-4.08-9.74-7.52-38.33-10.73-55.44-.78-6.79-2.83-19.25-6.19-26.14C303.93,99.87,301,94,293.81,94.74Z" style="fill:#407BFF"></path><path d="M267.53,81.35c1.28,7.33,2.43,15.93-1.27,21.5,3.39,4.27,10.73,7.25,17.88,8.45,4.05-5.7,3.08-10.74.83-13.52-4.33-2.58-4.06-7.06-4.15-10.15Z" style="fill:#ff8b7b"></path><path d="M284.14,111.3a9.2,9.2,0,0,0,1.38-4.31c0-2.23,4-1.07,4-1.07A15.07,15.07,0,0,1,284.14,111.3Z" style="fill:#263238"></path><path d="M284.14,111.3a4.07,4.07,0,0,0-3.79-2.67,13,13,0,0,0-5.71,1S280.33,111.71,284.14,111.3Z" style="fill:#263238"></path><path d="M270.7,84.12c-.09-.46-.16-.93-.23-1.39l10.35,4.91a18,18,0,0,0,.84,6.34C276.85,92.57,271.57,88.54,270.7,84.12Z" style="opacity:0.2"></path><path d="M279.85,53.33c6-1,10.19,6,5,15.91-3.56-1.7-6.51-7.41-6.51-7.41Z" style="fill:#e0e0e0"></path><path d="M261.67,72c4.12,8.92,6.08,14.36,12.52,17.21,9.69,4.29,19.32-4.41,17.94-14.41-1.25-9-7.78-22.08-18.13-22.14A13.54,13.54,0,0,0,261.67,72Z" style="fill:#ff8b7b"></path><path d="M288.75,76.67s-3.07,0-11.12,1.84c1.65,2.23,4,3.82,8.1,2.83A3.66,3.66,0,0,0,288.75,76.67Z" style="fill:#263238"></path><path d="M283.26,79.86a7.91,7.91,0,0,1,4.84.15,4.18,4.18,0,0,1-2.36,1.33,7.8,7.8,0,0,1-4.83-.15A4.1,4.1,0,0,1,283.26,79.86Z" style="fill:#ff5652"></path><path d="M288.36,76.68a1.59,1.59,0,0,1-.91,1.5,42.56,42.56,0,0,1-7.31,1,2.47,2.47,0,0,1-2.16-.78A67.35,67.35,0,0,1,288.36,76.68Z" style="fill:#fff"></path><path d="M277,77.16s-2.28.31-1.46,2C275.61,78.33,277,77.16,277,77.16Z" style="opacity:0.2"></path><path d="M266.82,78l4.07-.75s-2.81-7.88-6.19-10c2-1.93,5-5.85,5.94-8.57a12,12,0,0,0-3.13-13,14.2,14.2,0,0,1-7.13,9.81c-3.93,2.13-8.12,7.47-3.18,9.58C251.88,68.26,254.57,75,266.82,78Z" style="fill:#e0e0e0"></path><path d="M269.34,60.89c8,.2,13.53-8,6.6-17.89-.89,5.6-8.62,9-8.62,9Z" style="fill:#e0e0e0"></path><path d="M276.42,57.67c5.15,1.24,9.21-4.6,5.35-13.49-.92,4.39-6.1,6-6.1,6Z" style="fill:#e0e0e0"></path><path d="M273.7,70a5.37,5.37,0,0,0-4,.94A10.74,10.74,0,0,0,273.7,70Z" style="opacity:0.2"></path><path d="M273.86,70.92a4.42,4.42,0,0,0-3.29,1.73A8.8,8.8,0,0,0,273.86,70.92Z" style="opacity:0.2"></path><path d="M286.47,65s.74-1.38,1.59-1.21A3.57,3.57,0,0,1,286.47,65Z" style="opacity:0.2"></path><path d="M286.65,65.65s.79-1,1.54-.38A2.09,2.09,0,0,1,286.65,65.65Z" style="opacity:0.2"></path><path d="M260.82,80.12A9.21,9.21,0,0,0,266.75,84c3.22.59,4.57-2.36,3.45-5.25-1-2.6-3.9-6-7-5.32S259.15,77.6,260.82,80.12Z" style="fill:#ff8b7b"></path><path d="M275.19,70c.29.74.92,1.19,1.41,1s.64-1,.35-1.7-.92-1.19-1.41-1S274.9,69.24,275.19,70Z" style="fill:#263238"></path><path d="M284.46,66.3c.29.74.92,1.19,1.41,1s.64-1,.35-1.7-.92-1.19-1.4-1S284.17,65.55,284.46,66.3Z" style="fill:#263238"></path><path d="M281.4,67.55s3.5,3.49,6.21,4.72c-.76,1.78-3.2,2.21-3.2,2.21Z" style="fill:#ff5652"></path><path d="M271.47,66.32a.39.39,0,0,1-.24,0,.46.46,0,0,1-.32-.58,4.69,4.69,0,0,1,2.85-3.22.46.46,0,0,1,.58.3.47.47,0,0,1-.3.59h0A3.79,3.79,0,0,0,271.81,66,.49.49,0,0,1,271.47,66.32Z" style="fill:#263238"></path><path d="M285.86,60.66a.51.51,0,0,1-.45,0,3.66,3.66,0,0,0-3.38-.17.47.47,0,0,1-.63-.19.48.48,0,0,1,.19-.64,4.62,4.62,0,0,1,4.27.17.46.46,0,0,1,.19.63A.61.61,0,0,1,285.86,60.66Z" style="fill:#263238"></path><path d="M260.59,119.46c-1.08,3.13-2.28,6.29-3.4,9.44l-3.46,9.43-3.45,9.41c-1.11,3.14-2.25,6.26-3.32,9.37l-.05-4a66.86,66.86,0,0,0,3.91,9.79c1.6,3.38,3.32,6.8,5.12,10.2s3.63,6.81,5.48,10.22L267,193.58v0a3.74,3.74,0,0,1-6.1,4.26c-2.65-3-5.12-6.09-7.56-9.23s-4.79-6.35-7.08-9.62-4.5-6.64-6.57-10.17A68,68,0,0,1,234,157.26a5.9,5.9,0,0,1-.17-3.47l.13-.5c.85-3.37,1.73-6.7,2.71-10s2-6.57,3-9.82,2.14-6.49,3.28-9.7,2.29-6.41,3.58-9.61a7.51,7.51,0,0,1,14.08,5.24Z" style="fill:#ff8b7b"></path><path d="M255.36,104.16C244.61,108,238.73,129,238.73,129l17.13,15.26s7.06-5.06,8.5-15.78C265.46,120.21,266.28,100.22,255.36,104.16Z" style="fill:#407BFF"></path><path d="M263.71,188.86l8.82,4.77-8.45,8.56s-7.47-5.29-5.3-9.71Z" style="fill:#ff8b7b"></path><path d="M275.59,203.59l-3.47,2.5a3.48,3.48,0,0,1-4.49-.36l-3.55-3.54,8.45-8.56,3.81,5.05A3.48,3.48,0,0,1,275.59,203.59Z" style="fill:#ff8b7b"></path><path d="M267.79,98.53c.46,2.23,2.5,9.68,12.56,10.1-3.47,1.13-4.29,7.74-4.29,7.74s-10.35-6.52-11.36-14.68C265,99.54,267.79,98.53,267.79,98.53Z" style="fill:#fff"></path><path d="M282.16,94.63c.45,2.18,3.84,5.83,3.36,12.36,3.49-1.07,7.9,1.88,7.9,1.88a27.14,27.14,0,0,0-7-13.33A10.07,10.07,0,0,0,282.16,94.63Z" style="fill:#fff"></path></g></svg>