<svg xmlns="http://www.w3.org/2000/svg" viewBox="0 0 500 500"><g id="freepik--background-complete--inject-70"><rect y="382.4" width="500" height="0.25" style="fill:#ebebeb"></rect><rect x="416.78" y="398.49" width="33.12" height="0.25" style="fill:#ebebeb"></rect><rect x="322.53" y="401.21" width="8.69" height="0.25" style="fill:#ebebeb"></rect><rect x="396.59" y="389.21" width="19.19" height="0.25" style="fill:#ebebeb"></rect><rect x="52.46" y="390.89" width="43.19" height="0.25" style="fill:#ebebeb"></rect><rect x="104.56" y="390.89" width="6.33" height="0.25" style="fill:#ebebeb"></rect><rect x="131.47" y="395.11" width="93.68" height="0.25" style="fill:#ebebeb"></rect><path d="M237,337.8H43.91a5.71,5.71,0,0,1-5.7-5.71V60.66A5.71,5.71,0,0,1,43.91,55H237a5.71,5.71,0,0,1,5.71,5.71V332.09A5.71,5.71,0,0,1,237,337.8ZM43.91,55.2a5.46,5.46,0,0,0-5.45,5.46V332.09a5.46,5.46,0,0,0,5.45,5.46H237a5.47,5.47,0,0,0,5.46-5.46V60.66A5.47,5.47,0,0,0,237,55.2Z" style="fill:#ebebeb"></path><path d="M453.31,337.8H260.21a5.72,5.72,0,0,1-5.71-5.71V60.66A5.72,5.72,0,0,1,260.21,55h193.1A5.71,5.71,0,0,1,459,60.66V332.09A5.71,5.71,0,0,1,453.31,337.8ZM260.21,55.2a5.47,5.47,0,0,0-5.46,5.46V332.09a5.47,5.47,0,0,0,5.46,5.46h193.1a5.47,5.47,0,0,0,5.46-5.46V60.66a5.47,5.47,0,0,0-5.46-5.46Z" style="fill:#ebebeb"></path><path d="M156.07,304.36l-13.85,11.58L162,344.62l15.76-8.8a93.08,93.08,0,0,0,29.19,19l-1.6,17.92,34.23,6.33,4.91-17.32a92.91,92.91,0,0,0,34-7.3l11.58,13.85,28.68-19.73-8.8-15.77a92.92,92.92,0,0,0,19-29.18l17.92,1.59L353.18,271l-17.32-4.92a92.91,92.91,0,0,0-7.3-34l13.85-11.58-19.73-28.67-15.77,8.79a93.07,93.07,0,0,0-29.18-19l1.6-17.93-34.23-6.33-4.92,17.32a93.16,93.16,0,0,0-34,7.3L194.56,168.1l-28.67,19.73,8.79,15.76a93.12,93.12,0,0,0-19,29.19l-17.93-1.6-6.32,34.22,17.31,4.92A92.92,92.92,0,0,0,156.07,304.36ZM196,259.63a47.12,47.12,0,1,1,37.77,54.89A47.12,47.12,0,0,1,196,259.63Z" style="fill:#f0f0f0"></path><path d="M384.89,318.83l10.81,2,1.56-5.48a29.41,29.41,0,0,0,10.76-2.3l3.66,4.37,9.06-6.23-2.78-5a29.57,29.57,0,0,0,6-9.22l5.66.5,2-10.82-5.47-1.55a29.38,29.38,0,0,0-2.31-10.76l4.38-3.66L422,261.62l-5,2.78a29.77,29.77,0,0,0-9.23-6l.51-5.66-10.82-2-1.56,5.47a29.42,29.42,0,0,0-10.76,2.31l-3.66-4.38-9.06,6.24,2.78,5a29.3,29.3,0,0,0-6,9.23l-5.67-.51-2,10.82,5.47,1.56a29.63,29.63,0,0,0,2.31,10.76L365,300.88l6.23,9.06,5-2.78a29.41,29.41,0,0,0,9.23,6Zm-2.95-35.75a14.89,14.89,0,1,1,11.94,17.35A14.88,14.88,0,0,1,381.94,283.08Z" style="fill:#f0f0f0"></path><path d="M83.25,317.48,91.49,319l1.19-4.17a22.62,22.62,0,0,0,8.19-1.76l2.79,3.33,6.91-4.75-2.12-3.8a22.29,22.29,0,0,0,4.57-7l4.32.38,1.52-8.24-4.17-1.18a22.27,22.27,0,0,0-1.76-8.2l3.34-2.79-4.76-6.9L107.72,276a22.69,22.69,0,0,0-7-4.57l.39-4.31-8.25-1.53-1.18,4.17a22.68,22.68,0,0,0-8.2,1.76l-2.78-3.33L73.76,273l2.12,3.8a22.18,22.18,0,0,0-4.57,7L67,283.4l-1.52,8.24,4.17,1.18A22.27,22.27,0,0,0,71.4,301l-3.34,2.79,4.75,6.9,3.8-2.12a22.42,22.42,0,0,0,7,4.58ZM81,290.25a11.34,11.34,0,1,1,9.09,13.22A11.35,11.35,0,0,1,81,290.25Z" style="fill:#f0f0f0"></path><path d="M230.4,133.86l6.24,1.15.89-3.16a16.73,16.73,0,0,0,6.21-1.33l2.11,2.53,5.22-3.6-1.6-2.87a17,17,0,0,0,3.46-5.32l3.26.29,1.15-6.23-3.15-.9a17.08,17.08,0,0,0-1.33-6.2l2.52-2.11-3.59-5.22-2.87,1.6A17,17,0,0,0,243.6,99l.29-3.27-6.24-1.15-.89,3.16a16.64,16.64,0,0,0-6.2,1.33l-2.11-2.53-5.23,3.6,1.61,2.87a16.85,16.85,0,0,0-3.46,5.32l-3.27-.29L217,114.3l3.15.9a17.08,17.08,0,0,0,1.33,6.2l-2.52,2.11,3.6,5.22,2.87-1.6a16.87,16.87,0,0,0,5.31,3.46Zm-1.69-20.61a8.58,8.58,0,1,1,6.88,10A8.58,8.58,0,0,1,228.71,113.25Z" style="fill:#f0f0f0"></path><path d="M384.08,197.49l4.16.77.6-2.1a11.28,11.28,0,0,0,4.13-.89l1.41,1.68,3.49-2.39-1.07-1.92a11.09,11.09,0,0,0,2.3-3.54l2.18.19.77-4.16-2.1-.6a11.32,11.32,0,0,0-.89-4.13l1.68-1.41-2.4-3.48-1.91,1.06a11.31,11.31,0,0,0-3.55-2.3l.2-2.18-4.16-.77-.6,2.11a11.27,11.27,0,0,0-4.13.88l-1.41-1.68-3.49,2.4,1.07,1.91a11.14,11.14,0,0,0-2.3,3.55l-2.18-.19-.77,4.15,2.1.6a11.33,11.33,0,0,0,.89,4.14l-1.68,1.4,2.4,3.49,1.91-1.07a11.34,11.34,0,0,0,3.55,2.31ZM383,183.75a5.73,5.73,0,1,1,4.59,6.67A5.73,5.73,0,0,1,383,183.75Z" style="fill:#f0f0f0"></path><path d="M333.35,335.35a19.74,19.74,0,0,0,1.55,7.22L332,345l4.19,6.08,3.34-1.87a19.76,19.76,0,0,0,6.19,4l-.34,3.8,7.26,1.34,1-3.67a19.83,19.83,0,0,0,7.22-1.55l2.45,2.93,6.08-4.18-1.86-3.34a19.68,19.68,0,0,0,4-6.19l3.8.34,1.34-7.26-3.67-1a19.54,19.54,0,0,0-1.55-7.22l2.94-2.45-4.18-6.08-3.35,1.86a19.52,19.52,0,0,0-6.18-4l.33-3.81-7.25-1.34-1,3.68a19.73,19.73,0,0,0-7.22,1.54l-2.46-2.93L337,317.86l1.87,3.34a19.88,19.88,0,0,0-4,6.19l-3.8-.34-1.34,7.26Zm10-2.26a10,10,0,1,1,8,11.63A10,10,0,0,1,343.36,333.09Z" style="fill:#f0f0f0"></path><path d="M152.11,202.71c.91,4.5-4.54,9.41-12.17,10.95s-14.55-.87-15.46-5.37,4.54-9.42,12.17-11S151.2,198.2,152.11,202.71Z" style="fill:#e0e0e0"></path><path d="M155.06,186.54a4,4,0,0,0,.69-2.95c-.89-4.43-11-6.11-22.64-3.77s-20.3,7.84-19.41,12.26a4.09,4.09,0,0,0,1.79,2.45,3.24,3.24,0,0,0-.07,1.48,3.92,3.92,0,0,0,1.8,2.4,3.2,3.2,0,0,0-.09,1.53,3.83,3.83,0,0,0,1.84,2.37,3.07,3.07,0,0,0-.12,1.55,3.76,3.76,0,0,0,1.87,2.35,2.89,2.89,0,0,0-.15,1.58c.74,3.68,9.17,5.08,18.82,3.13s16.88-6.51,16.14-10.19a3,3,0,0,0-.76-1.4,3.69,3.69,0,0,0,.81-2.88,3,3,0,0,0-.71-1.39,3.86,3.86,0,0,0,.77-2.9,3.19,3.19,0,0,0-.67-1.37,3.93,3.93,0,0,0,.73-2.91A3.32,3.32,0,0,0,155.06,186.54Z" style="fill:#ebebeb"></path><path d="M164.55,143.72a38,38,0,1,0-55,41,6.22,6.22,0,0,1,3.33,4.83c0,.1,0,.2,0,.3.91,4.5,11.21,6.21,23,3.83s20.61-8,19.7-12.45c0-.1,0-.19-.07-.29a6.28,6.28,0,0,1,1.23-5.79A37.93,37.93,0,0,0,164.55,143.72Z" style="fill:#f5f5f5"></path><path d="M141.19,186.33h-.09a.46.46,0,0,1-.48-.43c0-.74-.93-17.46,6.27-25.47l-5.52,1.11a.42.42,0,0,1-.46-.19l-2.74-4L135.75,167a.48.48,0,0,1-.35.34.46.46,0,0,1-.46-.17l-6-8-2.64,8.59a.4.4,0,0,1-.35.31.49.49,0,0,1-.44-.15L119.75,161l-1,4.8a.42.42,0,0,1-.35.35l-6,1.2c3,2.15,12.61,9.76,14.93,21.26a.45.45,0,1,1-.89.18c-2.68-13.24-15.3-21.21-15.43-21.28a.46.46,0,0,1,.15-.84l6.71-1.35,1.12-5.42a.44.44,0,0,1,.33-.35h0a.43.43,0,0,1,.46.15l5.8,6.93L128.3,158a.45.45,0,0,1,.8-.14l6,8,2.44-9.67a.45.45,0,0,1,.36-.33.43.43,0,0,1,.45.19l3.14,4.56,6.7-1.35a.44.44,0,0,1,.5.24.46.46,0,0,1-.1.54c-8.05,7.17-7.07,25.64-7.06,25.83A.46.46,0,0,1,141.19,186.33Z" style="fill:#e0e0e0"></path></g><g id="freepik--Shadow--inject-70"><ellipse id="freepik--path--inject-70" cx="250" cy="416.24" rx="193.89" ry="11.32" style="fill:#f5f5f5"></ellipse></g><g id="freepik--speech-bubble--inject-70"><path d="M369.38,150.55c0-5.85-3.06-11.14-8-14.94a11.5,11.5,0,0,0,.25-2.35c0-7.8-7.93-14.14-17.8-14.32-3-7.55-11.92-13-22.5-13-8.42,0-15.81,3.48-20,8.71a23.84,23.84,0,0,0-3.19-.22c-10.06,0-18.22,6.42-18.22,14.34a11.34,11.34,0,0,0,.7,3.93c-6.41,3.37-10.64,9.11-10.64,15.63,0,6.28,3.92,11.83,9.94,15.24v.2c0,7.69,7.68,14,17.34,14.32,5.32,5.2,13.48,8.53,22.63,8.53a34.37,34.37,0,0,0,17.16-4.42,22.48,22.48,0,0,0,2.48.14c10.06,0,18.22-6.42,18.22-14.34v-.14C364.79,164.06,369.38,157.73,369.38,150.55Z" style="fill:#407BFF"></path><path d="M269.19,192.66c0,1.31-1.52,2.37-3.39,2.37s-3.39-1.06-3.39-2.37,1.52-2.37,3.39-2.37S269.19,191.35,269.19,192.66Z" style="fill:#407BFF"></path><path d="M292.67,187c0,3.79-4.41,6.86-9.85,6.86S273,190.81,273,187s4.41-6.86,9.85-6.86S292.67,183.24,292.67,187Z" style="fill:#407BFF"></path><path d="M369.38,150.55c0-5.85-3.06-11.14-8-14.94a11.5,11.5,0,0,0,.25-2.35c0-7.8-7.93-14.14-17.8-14.32-3-7.55-11.92-13-22.5-13-8.42,0-15.81,3.48-20,8.71a23.84,23.84,0,0,0-3.19-.22c-10.06,0-18.22,6.42-18.22,14.34a11.34,11.34,0,0,0,.7,3.93c-6.41,3.37-10.64,9.11-10.64,15.63,0,6.28,3.92,11.83,9.94,15.24v.2c0,7.69,7.68,14,17.34,14.32,5.32,5.2,13.48,8.53,22.63,8.53a34.37,34.37,0,0,0,17.16-4.42,22.48,22.48,0,0,0,2.48.14c10.06,0,18.22-6.42,18.22-14.34v-.14C364.79,164.06,369.38,157.73,369.38,150.55Z" style="fill:#fff;isolation:isolate;opacity:0.7000000000000001"></path><path d="M269.19,192.66c0,1.31-1.52,2.37-3.39,2.37s-3.39-1.06-3.39-2.37,1.52-2.37,3.39-2.37S269.19,191.35,269.19,192.66Z" style="fill:#fff;isolation:isolate;opacity:0.7000000000000001"></path><path d="M292.67,187c0,3.79-4.41,6.86-9.85,6.86S273,190.81,273,187s4.41-6.86,9.85-6.86S292.67,183.24,292.67,187Z" style="fill:#fff;isolation:isolate;opacity:0.7000000000000001"></path></g><g id="freepik--Symbol--inject-70"><path d="M320.18,120.42c9.73,0,15.75,4.57,15.75,12.7,0,11-11.18,12.41-11.18,20.9H315.1c0-11.17,8.93-11.83,8.93-18.79,0-3-1.89-4.43-5.08-4.43-3.56,0-5.45,2.1-5.52,6.46h-9.94C303.56,126.59,309.8,120.42,320.18,120.42ZM326,165.79a6.21,6.21,0,1,1-12.42,0,6.21,6.21,0,1,1,12.42,0Z" style="fill:#407BFF"></path></g><g id="freepik--Plant--inject-70"><path d="M102.15,353.58s-6.53-7.77-10.7-4.14S89.38,360.75,94.2,361a12.07,12.07,0,0,0,8-2.43Z" style="fill:#407BFF"></path><path d="M102.15,353.58s-6.53-7.77-10.7-4.14S89.38,360.75,94.2,361a12.07,12.07,0,0,0,8-2.43Z" style="fill:#fff;isolation:isolate;opacity:0.2"></path><path d="M128.79,333.88s5.48-5.75,8.88-4.77,3,14.69-7.49,9.14Z" style="fill:#407BFF"></path><path d="M128.79,333.88s5.48-5.75,8.88-4.77,3,14.69-7.49,9.14Z" style="fill:#fff;isolation:isolate;opacity:0.30000000000000004"></path><path d="M109.2,376.73s-18-24.65-3.39-29.64,17.23,19.83,13,26.74S109.2,376.73,109.2,376.73Z" style="fill:#407BFF"></path><path d="M117.56,326.26s11.18-25.95-5.38-26.73-18.36,25.73.69,29.58Z" style="fill:#407BFF"></path><path d="M109.2,376.73s-18-24.65-3.39-29.64,17.23,19.83,13,26.74S109.2,376.73,109.2,376.73Z" style="fill:#fff;isolation:isolate;opacity:0.30000000000000004"></path><path d="M117.56,326.26s11.18-25.95-5.38-26.73-18.36,25.73.69,29.58Z" style="fill:#fff;isolation:isolate;opacity:0.30000000000000004"></path><path d="M113.59,347.51s-5.43-22.91,5-24.74,20.76,18.87-.85,29.28C117.75,352.05,114.05,349.75,113.59,347.51Z" style="fill:#407BFF"></path><path d="M113.59,347.51s-5.43-22.91,5-24.74,20.76,18.87-.85,29.28C117.75,352.05,114.05,349.75,113.59,347.51Z" style="fill:#fff;isolation:isolate;opacity:0.2"></path><path d="M112,324.41c-6.24-4.56-10.55-13.36-6.88-20.78-.15.69-.33,1.44-.5,2.13-1.23,7,2.62,13.74,7.38,18.65Z" style="fill:#407BFF"></path><path d="M108,302.14c7.13,1.39,10.39,9.14,9.52,15.79-.16.94-.3,1.89-.48,2.81a46.13,46.13,0,0,0-.07-5.64c-.45-5.53-3.49-10.93-9-13Z" style="fill:#407BFF"></path><path d="M120.66,324.41c4.38,1.55,6.9,6.54,6.53,11-.36,3.28-2.2,6.23-4.24,8.69a32.17,32.17,0,0,1-5.59,5.29c.92-.9,1.82-1.8,2.65-2.76,2.48-2.8,4.93-5.88,6-9.5a11.19,11.19,0,0,0-5.34-12.77Z" style="fill:#407BFF"></path><path d="M117.56,326.26c1.08,3.35,2,7.37.28,10.67-1.46,2.14-1.61,4.94-1.65,7.49,0,.89,0,1.77.06,2.67a20.42,20.42,0,0,1-.58-5.35,9.63,9.63,0,0,1,1.46-5.26c1.61-3.09.84-6.87.43-10.22Z" style="fill:#407BFF"></path><path d="M110.21,349.44c4.22,2.28,5.89,16.59,5.74,21.27-.13-.93-.27-1.85-.45-2.77-.8-4.58-1.63-9.18-2.84-13.66-.57-1.69-.93-3.74-2.45-4.84Z" style="fill:#407BFF"></path><path d="M105.09,350.23a20.25,20.25,0,0,0,4.11,19.29,21.7,21.7,0,0,1-1.89-1.83,16,16,0,0,1-2.22-17.46Z" style="fill:#407BFF"></path><path d="M133,336.67a9.91,9.91,0,0,0,5-2.39c-.34,2.15-3.07,3.16-5,2.39Z" style="fill:#407BFF"></path><path d="M131.92,332.89c.9-1.84,4-3,5.29-1-1.84-.81-3.64.2-5.29,1Z" style="fill:#407BFF"></path><path d="M99.17,354.74c-2.1-1.48-4.28-4-7-2.69,2.22-2.63,6,.33,7,2.69Z" style="fill:#407BFF"></path><path d="M99.17,358.56c-2.77,1-8.2,1.1-8.59-2.76,1.58,3.14,5.6,2.45,8.59,2.76Z" style="fill:#407BFF"></path><polygon points="86.9 366.56 142.87 366.56 138.19 402.37 91.57 402.37 86.9 366.56" style="fill:#263238"></polygon><g style="opacity:0.2"><polygon points="142.87 366.56 141.23 379.08 141.13 379.87 140.2 386.99 139.96 388.84 139.27 394.11 138.72 398.33 138.19 402.37 91.57 402.37 91.04 398.33 90.49 394.11 89.81 388.84 89.56 386.99 88.64 379.87 88.53 379.08 86.9 366.56 142.87 366.56" style="fill:#fafafa"></polygon></g><polygon points="139.27 394.11 138.72 398.33 91.04 398.33 90.49 394.11 139.27 394.11" style="fill:#fafafa;opacity:0.2"></polygon><polygon points="140.2 386.99 139.96 388.84 89.81 388.84 89.56 386.99 140.2 386.99" style="fill:#fafafa;opacity:0.2"></polygon><polygon points="141.23 379.08 141.13 379.87 88.64 379.87 88.53 379.08 141.23 379.08" style="fill:#fafafa;opacity:0.2"></polygon></g><g id="freepik--Lamp--inject-70"><rect x="371.43" y="348.87" width="11.67" height="23.93" style="fill:#263238"></rect><path d="M410.27,387c0-8.32-6.37-15.6-15.9-19.62v-5.05H360.15v5.05c-9.53,4-15.89,11.3-15.89,19.62a17.6,17.6,0,0,0,3.81,10.7h0v4.24h58.39V397.7A17.6,17.6,0,0,0,410.27,387Z" style="fill:#263238"></path><path d="M410.27,387c0-8.32-6.37-15.6-15.9-19.62v-5.05H360.15v5.05c-9.53,4-15.89,11.3-15.89,19.62a17.6,17.6,0,0,0,3.81,10.7h0v4.24h58.39V397.7A17.6,17.6,0,0,0,410.27,387Z" style="fill:#fafafa;opacity:0.6000000000000001"></path><path d="M395.23,367.17H359.29a2.05,2.05,0,0,1-2.05-2.05V309.51h1v55.61a1,1,0,0,0,1.05,1.05h35.94a1,1,0,0,0,1-1.05V309.51h1v55.61A2.05,2.05,0,0,1,395.23,367.17Z" style="fill:#263238"></path><polygon points="412.25 355.8 342.28 355.8 357.63 296.38 396.9 296.38 412.25 355.8" style="fill:#407BFF"></polygon><rect x="348.07" y="397.69" width="58.39" height="4.24" style="opacity:0.2"></rect><rect x="360.15" y="362.32" width="34.22" height="5.05" style="opacity:0.2"></rect><polygon points="412.25 355.8 342.28 355.8 357.63 296.38 396.9 296.38 412.25 355.8" style="fill:#fafafa;opacity:0.6000000000000001"></polygon></g><g id="freepik--Character--inject-70"><path d="M268.94,269.8c8.86,11.51,18.31,23.6,29.75,32.35a22.74,22.74,0,0,0,6.77,3.65c.17.05,0,.14-.2.28s-.12.12-.12.2-.31.28-.39.35a5.73,5.73,0,0,0-1.79,3.68c0,.28.06.26.06.08-.61-4.6-3.4-9.13-5.76-13.42-9.55-16.13-21.56-31.2-33.09-46.2l9-8.82a303.45,303.45,0,0,1,28.6,27.76c6.88,7.7,13.6,15.78,18.82,25.07,5.19,8.89,8.29,21.5-.95,29.33a22.76,22.76,0,0,1-14.59,5.31c-17.5-.24-33.5-16.74-44.23-28.6a180.66,180.66,0,0,1-12.79-16.39l20.88-14.63Z" style="fill:#dc897c"></path><path d="M243.5,231.38l10.55-.51a5.66,5.66,0,0,1,3.32.9l16.34,10.59L271,253.75c-10.18,6.42-18.87.52-21.53-1.67a5.43,5.43,0,0,0-2.11-1.08l-5.78-1.55a5.62,5.62,0,0,1-4.14-6l.72-7A5.62,5.62,0,0,1,243.5,231.38Z" style="fill:#e4897b"></path><path d="M299.92,302.13l-10.58,33.71s-1.19-.63-3.13-1.72c-5.11-2.87-15.45-8.89-23.09-14.86-4.44-3.46-8-6.9-9-9.7-3.55-9.4,17.58-42.73,17.58-42.73,6.64,1.66,14.7,13.7,14.7,13.7S297.37,296,299.92,302.13Z" style="fill:#407BFF"></path><path d="M286.21,334.12c-5.11-2.87-15.45-8.89-23.09-14.86a60.48,60.48,0,0,1,1.09-14.18S281.19,314.7,286.21,334.12Z" style="opacity:0.2"></path><path d="M271.69,266.84s20.48,52.76.67,150.89L179,417.5c-.61-14.33,5.88-81.43-7.78-149,0,0,3.83-4.68,33.95-6.67,11.92-.79,29.21-.88,39.69.1A174.33,174.33,0,0,1,271.69,266.84Z" style="fill:#263238"></path><path d="M280.79,348.6c-.13,3.57-.31,7.24-.55,11-.21,3.07-.44,6.22-.72,9.44-.35,3.84-.75,7.79-1.25,11.84q-.57,5-1.3,10.12-.89,6.23-2,12.74c-.78,4.54-1.64,9.2-2.61,14L179,417.51c-.14-3.12.06-8.74.32-16.31.11-3,.22-6.38.33-10,.07-2.63.14-5.43.2-8.34.06-3.24.12-6.65.14-10.22q0-4.15,0-8.58c0-3.41-.05-6.93-.13-10.54,0-2.68-.12-5.4-.21-8.17-.33-9.85-.92-20.28-1.9-31.07a426,426,0,0,0-6.55-45.78s3.84-4.68,34-6.67c11.92-.79,29.2-.89,39.7.1a176.06,176.06,0,0,1,26.83,4.91S282.65,295.05,280.79,348.6Z" style="fill:#fafafa;opacity:0.6000000000000001"></path><path d="M189.38,310s-.83,22.28-9.73,35.37c-.33-9.85-.92-20.28-1.9-31.07C181.4,311.51,185.37,309.86,189.38,310Z" style="opacity:0.2"></path><g style="opacity:0.6000000000000001"><path d="M280.79,348.6c-.13,3.57-.31,7.24-.55,11l-9.8,11.54-14.08-16.56L242.3,371.17l-14.07-16.56-14.07,16.56-14.07-16.56L186,371.17l-6-7.11c0-3.41-.05-6.93-.13-10.54l6.17,7.26,14.06-16.57,14.07,16.57,14.07-16.57,14.07,16.57,14.06-16.57,14.08,16.57Z" style="fill:#fafafa"></path></g><g style="opacity:0.6000000000000001"><path d="M279.52,369.07c-.35,3.84-.75,7.79-1.25,11.84l-7.83,9.24-14.08-16.57L242.3,390.15l-14.07-16.57-14.07,16.57-14.07-16.57L186,390.15l-6.19-7.29c.06-3.24.12-6.65.14-10.22l6.05,7.11,14.06-16.56,14.07,16.56,14.07-16.56,14.07,16.56,14.06-16.56,14.08,16.56Z" style="fill:#fafafa"></path></g><g style="opacity:0.6000000000000001"><path d="M277,391q-.89,6.23-2,12.74l-4.53,5.34-14.08-16.55L242.3,409.11l-14.07-16.55-14.07,16.55-14.07-16.55L186,409.11l-6.72-7.91c.11-3,.22-6.38.33-10l6.39,7.53,14.06-16.57,14.07,16.57,14.07-16.57,14.07,16.57,14.06-16.57,14.08,16.57Z" style="fill:#fafafa"></path></g><path d="M204,220.64c3.68,12.49,8.35,35.55.25,44.87,12.67,4,21.79,6.7,33,15,2.94-8.15,6.53-18.72,6.53-18.72-14.5-2.06-15.12-12.61-13.57-22.72Z" style="fill:#e4897b"></path><path d="M214.64,228.17l15.51,10.91a39.33,39.33,0,0,0-.56,7.12c-5.49-.27-13.49-5.52-14.6-11.14A19.1,19.1,0,0,1,214.64,228.17Z" style="opacity:0.2"></path><polygon points="193.35 262.78 202.3 254.37 226.28 262.6 236.76 278.71 240.67 262.38 246.09 257.49 255.58 263.3 254.11 273.65 247.25 270.29 238.96 283.86 220.43 272.98 215.26 277.94 193.35 262.78" style="fill:#407BFF"></polygon><polygon points="238.96 283.86 243.8 266.9 254.11 273.65 247.25 270.29 238.96 283.86" style="opacity:0.2"></polygon><polygon points="238.96 283.86 222.63 267.86 215.26 277.94 220.43 272.98 238.96 283.86" style="opacity:0.2"></polygon><path d="M199.46,295.5c6,7.23,14.2,17.27,20.28,24.17,7.25,8.06,14.46,16.62,23.23,22.8.34.21-.05,0-.22,0a1,1,0,0,0-.29-.06c-.08,0,0,0,0,.05,3.94.87,8.37-.05,12.58-.62,12.83-2.16,25.45-5.79,38.3-9.1l5.05,11.57c-4.87,3-9.72,5.55-14.76,8C271,358.23,248,368.92,234.06,363.68a62.53,62.53,0,0,1-14.27-9.16,202.06,202.06,0,0,1-18.8-17.8c-5.77-6.13-11.23-12.4-16.49-18.94-1.77-2.18-3.43-4.32-5.19-6.66l20.15-15.62Z" style="fill:#dc897c"></path><path d="M162.94,280.06c-10.23,32.42,35.73,64.16,35.73,64.16l24.56-27.92s-10.82-20-23.08-37.78C187.32,259.92,168.33,263,162.94,280.06Z" style="fill:#407BFF"></path><path d="M291.33,334.24l17.28-17.94,13.06,17.42S311.36,348,297.33,344.28Z" style="fill:#e4897b"></path><polygon points="325.46 310.8 332.09 326.12 321.67 333.72 308.61 316.3 325.46 310.8" style="fill:#e4897b"></polygon><path d="M237.35,174.25c8.89,3.49,15,27.73,4.19,33.57S220.5,167.65,237.35,174.25Z" style="fill:#263238"></path><path d="M199,202.78c4.6,17,6.44,27.09,17,34.4,15.84,11,35.5-.5,36.07-18.31.52-16-7.1-41.09-25.4-45C208.65,170,194.42,185.82,199,202.78Z" style="fill:#e4897b"></path><path d="M214.18,180.92,212.3,166a19.9,19.9,0,0,1-12.05,2.26c-18-3.09-30.85,9.1-22,18.54-8.14,4.13-2.82,15.31,3.22,22.27,8.39,9.69,17,14,22.4,9,5-2.81,4.72-20.57,2.63-27C203.34,181.33,214.18,180.92,214.18,180.92Z" style="fill:#263238"></path><path d="M196,220.88a18.85,18.85,0,0,0,11.22,5.92c5.45.65,6.41-4.43,3.42-9.13-2.7-4.23-8.79-9.66-13.55-8.14S192.27,216.85,196,220.88Z" style="fill:#e4897b"></path><path d="M225.05,203.1c.29,1.39,1.27,2.4,2.19,2.24s1.43-1.42,1.14-2.81-1.27-2.4-2.19-2.25S224.77,201.7,225.05,203.1Z" style="fill:#263238"></path><path d="M240.93,200.38c.29,1.4,1.26,2.4,2.18,2.24s1.43-1.41,1.14-2.81-1.27-2.4-2.18-2.24S240.64,199,240.93,200.38Z" style="fill:#263238"></path><path d="M237.15,201.94s4.86,7.5,9.18,10.79c-2,2.73-6.45,2.4-6.45,2.4Z" style="fill:#de5753"></path><path d="M230.14,195.78a.81.81,0,0,1,.34.25.84.84,0,0,1-.15,1.18,8,8,0,0,1-7.41,1.45.82.82,0,0,1-.5-1.07.84.84,0,0,1,1.07-.5,6.34,6.34,0,0,0,5.81-1.2A.81.81,0,0,1,230.14,195.78Z" style="fill:#263238"></path><path d="M245.51,192.77a.82.82,0,0,1-.76-.18,7.06,7.06,0,0,0-5.91-1.81.84.84,0,1,1-.41-1.62h0a8.62,8.62,0,0,1,7.41,2.18.84.84,0,0,1,.08,1.18A.88.88,0,0,1,245.51,192.77Z" style="fill:#263238"></path><path d="M199.3,170.21s12.42-24,35.54-19.09c0,0-4.42,1-6.3,2.67,0,0,20.18-1.76,26.47,12.42l-3.86-2.27s5.14,11.75-.88,19.49l-1.13-3.89s-8.26,10.25-20.59,7.34l4.26-2.16s-21.24-.65-26.5-6.07S199.3,170.21,199.3,170.21Z" style="fill:#263238"></path><path d="M242,222.46a.7.7,0,0,1-.5-.21c-3.13-3.39-8.62-2.09-8.67-2.08a.68.68,0,0,1-.33-1.31c.26-.06,6.31-1.5,10,2.47a.68.68,0,0,1,0,.95A.69.69,0,0,1,242,222.46Z" style="fill:#263238"></path></g><g id="freepik--Table--inject-70"><rect x="76.8" y="401.93" width="338.98" height="15.8" style="fill:#407BFF"></rect><rect x="76.8" y="401.93" width="338.98" height="15.8" style="fill:#fafafa;opacity:0.2"></rect><path d="M420.85,401.93H72.7a4,4,0,0,0-4,3.95h0a4,4,0,0,0,4,3.95H420.85a4,4,0,0,0,3.95-3.95h0A4,4,0,0,0,420.85,401.93Z" style="fill:#407BFF"></path><path d="M420.85,401.93H72.7a4,4,0,0,0-4,3.95h0a4,4,0,0,0,4,3.95H420.85a4,4,0,0,0,3.95-3.95h0A4,4,0,0,0,420.85,401.93Z" style="fill:#fafafa;opacity:0.4"></path></g></svg>